<svg width="25" height="25" viewBox="0 0 25 25" fill="none" xmlns="http://www.w3.org/2000/svg">
<rect x="0.5" y="0.519531" width="24" height="24" rx="8" fill="#4A21EF"/>
<g clip-path="url(#clip0_23_1308)">
<path d="M12.1021 5.69586C11.6575 5.69586 11.2311 5.87249 10.9167 6.18688L5.97832 11.1254C5.79127 11.3124 5.69775 11.5576 5.69775 11.8028C5.69776 12.0479 5.79128 12.2931 5.97833 12.4801L9.21463 15.7164V9.98698C9.21463 9.55942 9.55854 9.21279 9.9861 9.21279C11.7925 9.21279 16.1896 9.21279 16.7894 9.21279L20.3063 5.69591L12.1021 5.69586Z" fill="white"/>
<path d="M9.21475 16.7876H16.0154C16.4429 16.7876 16.7896 16.441 16.7896 16.0134V10.2839L20.0259 13.5203C20.2129 13.7073 20.3064 13.9525 20.3064 14.1976C20.3064 14.4428 20.2129 14.6879 20.0259 14.875L15.0874 19.8135C14.773 20.1279 14.3467 20.3046 13.902 20.3046L5.69788 20.3045L9.21475 16.7876Z" fill="white"/>
</g>
<defs>
<clipPath id="clip0_23_1308">
<rect x="5.69775" y="5.69586" width="14.6087" height="14.6087" rx="5" fill="white"/>
</clipPath>
</defs>
</svg>
